<svg xmlns="http://www.w3.org/2000/svg" width="454" height="196" xmlns:xlink="http://www.w3.org/1999/xlink"><defs><path id="a" d="M.43.81H11v10.57H.43z"/><path id="c" d="M.83 3.99C.83 1.787 2.625 0 4.83 0h12.246c2.21 0 4 1.79 4 4.007v8.282c0 2.21-1.793 4-4 4h-10.5l-2.64 2.14C2.222 19.82.83 19.16.83 16.96V3.99z"/><rect id="e" width="1.412" height="4.125" x=".941" y=".063" rx=".706"/><path id="g" d="M91.286 163H95c1.657 0 3-1.343 3-3v-5c0-1.657-1.343-3-3-3h-9c-1.657 0-3 1.343-3 3v5c0 1.657 1.343 3 3 3h.848v1.543c0 .552.447 1 1 1 .232 0 .457-.08.636-.23L91.286 163z"/></defs><g fill="none" fill-rule="evenodd"><g fill="#506066" fill-rule="nonzero"><path d="M40.498 13.938c1.994 0 3.61-1.54 3.61-3.438 0-1.9-1.616-3.438-3.61-3.438-1.994 0-3.61 1.54-3.61 3.438 0 1.9 1.616 3.438 3.61 3.438zm0-1.25c-1.27 0-2.297-.98-2.297-2.188 0-1.208 1.03-2.187 2.3-2.187 1.27 0 2.3.98 2.3 2.187 0 1.208-1.03 2.187-2.29 2.187h-.01z"/><path d="M32.373 9.41c-.052.36-.078.723-.078 1.09 0 .343.023.682.07 1.018.03.23.06.337.06.337l-1.242 1.19.098-.078c-.58.377-.76 1.138-.41 1.72l.99 1.626c.36.583 1.14.81 1.77.517l-.12.042 1.39-.35.28-.077c.63.51 1.33.927 2.09 1.236.25.11.42.16.42.16l.45 1.58-.02-.12c.05.67.65 1.2 1.36 1.2h1.97c.71 0 1.31-.53 1.36-1.2l-.02.12.44-1.54c.82-.27 1.58-.66 2.26-1.16.21-.15.32-.25.32-.25l1.61.41-.12-.04c.64.3 1.42.07 1.78-.51l.99-1.62c.36-.58.17-1.34-.41-1.72l.1.08-1.15-1.11c.09-.47.14-.94.14-1.43 0-.39-.03-.78-.09-1.17l-.04-.27 1.15-1.11-.1.08c.59-.38.77-1.14.42-1.72l-.99-1.63c-.35-.58-1.13-.81-1.77-.52l.12-.04-1.59.42c-.66-.54-1.41-.97-2.22-1.28-.23-.09-.37-.12-.37-.12l-.44-1.55.02.12c-.07-.69-.67-1.22-1.38-1.22H39.5c-.707 0-1.306.53-1.356 1.21l.02-.12-.44 1.57c-.8.28-1.54.67-2.206 1.16-.205.15-.3.25-.3.25l-1.69-.43.12.05c-.637-.3-1.42-.07-1.77.51l-.99 1.63c-.35.59-.17 1.34.41 1.72l-.1-.07 1.24 1.19s-.02.06-.05.26l-.015-.04zm1.223-.915l-1.482-1.42c-.03-.03-.063-.055-.098-.077-.016-.01-.023-.045-.013-.06l.984-1.625c.01-.014.047-.026.06-.02.04.018.08.033.12.044l2.018.508c.218.055.45 0 .616-.147.75-.665 1.65-1.164 2.63-1.457.21-.06.38-.22.44-.43l.54-1.9c.01-.03.02-.07.02-.11 0-.02.03-.04.05-.04h1.97c.02 0 .05.03.05.05.01.04.01.08.02.12l.54 1.87c.06.21.23.38.45.44 1.01.29 1.93.79 2.7 1.47.17.15.4.2.61.15l1.95-.49c.04-.01.08-.02.12-.04.02-.01.06 0 .07.02l.98 1.62c.01.02 0 .05-.01.06-.03.02-.07.05-.1.08L47.4 8.46c-.16.15-.223.37-.172.58.115.486.175.99.175 1.495 0 .505-.06 1.01-.18 1.5-.05.21.017.43.177.584l1.403 1.34c.03.03.066.05.1.07.016.01.025.04.015.06l-.988 1.62c-.01.01-.05.02-.065.02-.04-.02-.08-.04-.12-.05l-1.944-.49c-.22-.05-.45 0-.61.15-.77.67-1.69 1.18-2.69 1.46-.21.06-.38.22-.44.43l-.53 1.87c-.01.04-.02.08-.02.12 0 .02-.03.04-.05.04h-1.97c-.01 0-.04-.02-.04-.04 0-.04-.01-.08-.02-.12l-.54-1.9c-.06-.21-.22-.37-.43-.43-.97-.29-1.87-.79-2.62-1.46-.16-.15-.4-.2-.61-.15l-2.01.51c-.04.01-.08.02-.12.04-.01.01-.05 0-.06-.02l-1-1.66c-.01-.01 0-.05.02-.06.04-.02.07-.05.1-.08l1.48-1.42c.16-.15.22-.37.18-.58-.11-.47-.17-.95-.17-1.43s.05-.97.16-1.43c.05-.21-.02-.43-.18-.58l-.02.04z"/></g><g transform="translate(5 3)"><mask id="b" fill="#fff"><use xlink:href="#a"/></mask><path stroke="#FFF" stroke-width="2" d="M6.333 6.714h3.05c.332 0 .617-.277.617-.62 0-.33-.276-.618-.616-.618h-3.05v-3.05c0-.33-.278-.616-.62-.616-.332 0-.62.276-.62.616v3.05h-3.05c-.33 0-.615.277-.615.62 0 .33.27.618.61.618h3.05v3.05c0 .332.27.617.62.617.33 0 .62-.27.62-.61V6.72z" mask="url(#b)"/></g><g transform="translate(0 1)"><mask id="d" fill="#fff"><use xlink:href="#c"/></mask><g mask="url(#d)"><path stroke="#506066" stroke-width="2.6" d="M.83 3.99C.83 1.787 2.625 0 4.83 0h12.246c2.21 0 4 1.79 4 4.007v8.282c0 2.21-1.793 4-4 4h-10.5l-2.64 2.14C2.222 19.82.83 19.16.83 16.96V3.99z"/><path fill="#506066" fill-rule="nonzero" d="M11.333 8.714h3.05c.332 0 .617-.277.617-.62 0-.33-.276-.618-.616-.618h-3.05v-3.05c0-.33-.278-.616-.62-.616-.332 0-.62.276-.62.616v3.05h-3.05c-.33 0-.615.277-.615.62 0 .33.27.618.61.618h3.05v3.05c0 .332.27.617.62.617.33 0 .62-.27.62-.61V8.72z"/></g></g><path fill="#506066" fill-rule="nonzero" d="M76.9 9.987c-.43.43-.43 1.13 0 1.56.43.43 1.13.432 1.56 0 1.86-1.857 1.86-4.88.002-6.74-1.858-1.857-4.882-1.856-6.74.002L60.077 16.45c-1.858 1.858-1.858 4.88 0 6.74 1.858 1.857 4.882 1.857 6.746-.007l1.04-1.054 7.088-7.09c1.41-1.41 1.53-3.19.29-4.43-1.24-1.24-3.13-1.15-4.49.22l-6.59 6.58c-.43.43-.43 1.13 0 1.56.43.43 1.13.43 1.56 0l6.59-6.59c.24-.24.85-.74 1.38-.22.35.34.25.78-.28 1.31l-7.09 7.1-1.04 1.05c-1 1-2.62 1-3.62 0-.99-1-.99-2.62 0-3.62L73.3 6.36c1-1 2.62-1 3.62-.007.995 1 .995 2.62 0 3.62l-.02.014zm8.882.51v-3.72c0-.663.532-1.213 1.196-1.232v-1.08c0-.285.266-.513.57-.456.094.01.17.07.226.13l1.386 1.38h4.022c.682 0 1.233.55 1.233 1.23v.65h-4.8c-1.026 0-1.84.83-1.84 1.84v2.48h-.74c-.702.02-1.253-.55-1.253-1.24v.01zm11.42-1.024v3.737c0 .588-.416 1.1-.985 1.215v1.1c0 .133-.057.248-.152.343-.095.076-.19.132-.322.132-.133 0-.247-.057-.322-.132l-1.4-1.405h-4.23c-.68 0-1.23-.55-1.23-1.233V9.473c0-.683.55-1.233 1.24-1.233h6.17c.71-.02 1.26.55 1.26 1.233h-.02zm-.852 0c0-.208-.17-.38-.38-.38h-6.166c-.21 0-.38.172-.38.38v3.737c0 .21.17.38.38.38h4.59l.968.967v-.967h.607c.2 0 .38-.17.38-.38V9.473zm20.176 2.287c0 .8-.582 1.497-1.377 1.65v1.498c0 .18-.08.336-.22.465-.13.104-.27.18-.45.18s-.35-.078-.45-.18l-1.96-1.91h-5.2c-.96 0-1.72-.748-1.72-1.676v-5.11c0-.928.76-1.676 1.72-1.676h7.9c.98-.02 1.75.75 1.75 1.68v5.08zm-1.722-5.598H106.9c-.29 0-.53.232-.53.516v5.082c0 .283.24.516.53.516h5.705l1.35 1.315v-1.31h.848c.29 0 .53-.23.53-.51V6.68c0-.284-.238-.516-.53-.516v-.002z"/><g transform="translate(109.153 7)"><mask id="f" fill="#fff"><use xlink:href="#e"/></mask><rect width="1.412" height="4.125" x=".941" y=".063" fill="#D8D8D8" fill-rule="nonzero" stroke="#506066" stroke-width="2" mask="url(#f)" rx=".706"/></g><g transform="translate(108.153 7)"><rect width="1.412" height="4.125" x="1.941" y=".063" rx=".706"/><rect width="1.412" height="4.125" x="1.942" y=".063" fill="#506066" fill-rule="nonzero" transform="rotate(90 2.647 2.125)" rx=".706"/></g><g fill-rule="nonzero" transform="translate(145.05 5)"><circle cx="15" cy="15" r="15" fill="#2F9BDB"/><path fill="#FFF" d="M9.643 11.786c1.183 0 2.143-.96 2.143-2.143 0-1.184-.96-2.143-2.143-2.143C8.46 7.5 7.5 8.46 7.5 9.643c0 1.183.96 2.143 2.143 2.143zm3.214-2.143c0-1.184.95-2.143 2.14-2.143h4.29c1.183 0 2.142.95 2.142 2.143 0 1.183-.95 2.143-2.15 2.143h-4.29c-1.18 0-2.14-.95-2.14-2.143zm2.143 7.5c1.183 0 2.143-.96 2.143-2.143 0-1.183-.96-2.143-2.143-2.143-1.183 0-2.143.96-2.143 2.143 0 1.183.96 2.143 2.143 2.143zm0 5.357c1.183 0 2.143-.96 2.143-2.143 0-1.183-.96-2.143-2.143-2.143-1.183 0-2.143.96-2.143 2.143 0 1.184.96 2.143 2.143 2.143z"/><g transform="translate(40 35)"><circle cx="15" cy="15" r="15" fill="#2F9BDB"/><path fill="#FFF" d="M23.545 15.794c.648-.273.648-1.172 0-1.465L10.11 8.57C9.587 8.342 9 8.74 9 9.305v3.788c0 .398.273.712.67.774l2.47.42c.878.145.878 1.422 0 1.568l-2.47.42c-.378.062-.67.396-.67.772v3.788c0 .545.587.922 1.11.713l13.435-5.756v.002z"/></g></g><g fill-rule="nonzero" transform="translate(183 5)"><circle cx="15" cy="15" r="15" fill="#506066"/><g transform="translate(40 2)"><circle cx="28" cy="12" r="12" fill="#2F9BDB"/><path fill="#FFF" d="M22.435 7.817c.272-.487.793-.818 1.39-.817h8.594c.66 0 1.24.412 1.47.996l-5.64 5.64-5.82-5.82zM34.01 8.914v6.15c0 .877-.713 1.59-1.59 1.59l-4.39.018-2.595-.02h-1.61c-.877 0-1.59-.71-1.59-1.59V8.646l6.022 6.022 5.753-5.753z"/><path fill="#2F9BDB" d="M12.15 7.65H3.682c-.402 0-.732-.33-.732-.73 0-.403.33-.732.732-.732h8.486c.402.02.714.33.714.73 0 .403-.33.732-.732.732zm0 4.908H1.707c-.402 0-.732-.33-.732-.732 0-.4.33-.73.732-.73h10.46c.403 0 .715.33.715.73 0 .403-.33.732-.732.732zm0 4.907H3.73c-.4 0-.73-.33-.73-.73 0-.403.33-.732.73-.732h8.438c.402 0 .714.33.714.73 0 .403-.33.732-.732.732z"/></g><path fill="#FFF" d="M9.643 11.786c1.183 0 2.143-.96 2.143-2.143 0-1.184-.96-2.143-2.143-2.143C8.46 7.5 7.5 8.46 7.5 9.643c0 1.183.96 2.143 2.143 2.143zm3.214-2.143c0-1.184.95-2.143 2.14-2.143h4.29c1.183 0 2.142.95 2.142 2.143 0 1.183-.95 2.143-2.15 2.143h-4.29c-1.18 0-2.14-.95-2.14-2.143zm2.143 7.5c1.183 0 2.143-.96 2.143-2.143 0-1.183-.96-2.143-2.143-2.143-1.183 0-2.143.96-2.143 2.143 0 1.183.96 2.143 2.143 2.143zm0 5.357c1.183 0 2.143-.96 2.143-2.143 0-1.183-.96-2.143-2.143-2.143-1.183 0-2.143.96-2.143 2.143 0 1.184.96 2.143 2.143 2.143z"/></g><g fill="#506066" fill-rule="nonzero"><path d="M125.318 10.175c.006-.017.01-.035.017-.05.03-.073.072-.14.13-.2l1.522-1.52c.23-.227.598-.227.826 0 .23.23.23.613 0 .84l-.55.568h5.17c.315 0 .57.274.57.59 0 .313-.255.588-.57.588h-5.247l.6.57c.227.23.227.58 0 .81-.23.23-.6.22-.827-.01l-1.53-1.52c-.18-.17-.22-.44-.12-.65v-.01z"/><path d="M129.848 11.874c.315 0 .516.255.516.57v1.51c0 .355.24.72.596.72h4.124c.356 0 .74-.365.74-.72V6.797c0-.356-.384-.52-.74-.52h-4.123c-.35 0-.59.164-.59.52v1.51c0 .314-.2.568-.51.568s-.51-.254-.51-.57V6.8c0-.983.65-1.7 1.63-1.7h4.13c.99 0 1.92.717 1.92 1.7v7.155c0 .983-.93 1.9-1.92 1.9h-4.12c-.98 0-1.63-.917-1.63-1.9v-1.51c0-.313.2-.57.52-.57h-.03z"/></g><g transform="translate(145 39)"><circle cx="15" cy="15" r="15" fill="#2F9BDB" fill-rule="nonzero"/><path fill="#FFF" fill-rule="nonzero" d="M22.36 16.46c-.29 4.793-2.325 5.178-2.422 5.158-.078-.02-.95.115-2.635-2.483-1.57-2.424-4.437-2.29-5.54-2.31-.815-.018-2.424-.018-3.392 0-.42 0-.77-.345-.77-.768V13.19c0-.424.35-.77.78-.77.97 0 2.6.02 3.41 0 1.11-.02 3.99.115 5.54-2.31 1.67-2.598 2.52-2.463 2.6-2.482.12-.077 2.15.212 2.44 5.1.06.923.06 2.79 0 3.733h-.01zm-12.17 2.06c-.09-.385.18-.75.55-.75h1.15c.37 0 .64.307.62.654l-.04.558c-.02.328.14.635.41.808l.39.25c.27.172.43.48.43.79v.037c0 .405-.33.732-.73.732h-1.28c-.31 0-.6-.22-.69-.52l-.77-2.56h-.04z"/><path fill="#2F9BDB" d="M20.093 8.88c.872 0 1.607 2.52 1.607 5.638 0 3.117-.697 5.658-1.588 5.658-.717 0-1.337-1.675-1.53-3.965.523-.32.852-.92.852-1.57 0-.67-.348-1.25-.87-1.59.173-2.38.792-4.15 1.53-4.15v-.02z"/></g><g stroke="#2F9BDB" stroke-linecap="round"><path d="M11.34 75.456l3.67 3.67-3.412 3.413"/><path d="M14.92 79.1H9.066c-2.78 0-3.694.75-3.694 3.272"/></g><path stroke="#2F9BDB" stroke-width="2" d="M29.588 78.577h11.077M32.55 74L28 78.55l4.55 4.764" stroke-linecap="round"/><g fill="#2F9BDB" fill-rule="nonzero"><path d="M67.755 70.19c-1.893 0-3.66.824-4.874 2.24-1.21-1.416-2.98-2.24-4.87-2.24-3.54 0-6.42 2.89-6.42 6.442 0 1.686.65 3.28 1.82 4.49l8.05 8.78c.38.413.89.64 1.44.64.55 0 1.06-.23 1.44-.64l8.04-8.776c1.18-1.21 1.83-2.806 1.83-4.494 0-3.554-2.88-6.442-6.43-6.442h-.02zm3.734 10.096c-.01.004-.01.01-.02.013l-8.05 8.78c-.15.16-.35.25-.55.25-.21 0-.4-.09-.55-.25l-8.04-8.77-.02-.03c-.96-.99-1.49-2.28-1.49-3.66 0-2.89 2.34-5.24 5.22-5.24 1.73 0 3.35.86 4.32 2.3l.03.06c.11.17.3.28.5.28.21 0 .39-.1.51-.28.97-1.49 2.6-2.37 4.37-2.37 2.88 0 5.22 2.34 5.22 5.23 0 1.37-.53 2.67-1.49 3.66l.04.02z"/><path d="M58.104 72.46c-2.35 0-4.26 1.915-4.26 4.27 0 .356.292.646.647.646.36 0 .65-.29.65-.647 0-1.65 1.33-2.98 2.97-2.98.36 0 .65-.29.65-.65 0-.36-.29-.65-.64-.65l-.01.01z"/></g><path fill="#2F9BDB" fill-rule="nonzero" d="M97.755 70.19c3.544 0 6.428 2.888 6.428 6.442 0 1.688-.647 3.285-1.824 4.494L94.31 89.9c-.38.413-.888.642-1.436.642-.547 0-1.057-.227-1.437-.64l-8.046-8.78c-1.17-1.21-1.81-2.804-1.81-4.49 0-3.552 2.88-6.442 6.43-6.442 1.89 0 3.66.824 4.88 2.24 1.22-1.416 2.99-2.24 4.88-2.24h-.01zm-9.65 2.27c-2.35 0-4.26 1.915-4.26 4.27 0 .356.29.646.646.646.36 0 .65-.29.65-.647 0-1.65 1.33-2.98 2.97-2.98.36 0 .65-.29.65-.65 0-.36-.29-.65-.64-.65l-.01.01z"/><path fill="#506066" fill-rule="nonzero" d="M80 105c0-1.105.888-2 2-2 1.105 0 2 .888 2 2 0 1.105-.888 2-2 2-1.105 0-2-.888-2-2zm8 0c0-1.105.888-2 2-2 1.105 0 2 .888 2 2 0 1.105-.888 2-2 2-1.105 0-2-.888-2-2zm8 0c0-1.105.888-2 2-2 1.105 0 2 .888 2 2 0 1.105-.888 2-2 2-1.105 0-2-.888-2-2zm-27.183 4.16c-.43 0-.825.143-1.145.383l-5.918-3.655c.056-.18.086-.37.086-.568 0-.222-.04-.434-.11-.632l5.698-3.804c.35.366.843.596 1.39.596 1.057 0 1.92-.862 1.92-1.92 0-1.058-.863-1.92-1.92-1.92-1.06 0-1.92.862-1.92 1.92 0 .167.022.327.062.483l-5.762 3.848c-.34-.3-.787-.49-1.278-.49-1.058 0-1.92.87-1.92 1.92 0 1.06.862 1.92 1.92 1.92.515 0 .983-.2 1.328-.53l5.817 3.6c-.107.24-.168.51-.168.79 0 1.06.862 1.92 1.92 1.92 1.058 0 1.92-.86 1.92-1.92 0-1.05-.862-1.92-1.92-1.92v-.02zm50.626-12.13c-.157-.016-.253-.015-.342 0-.08.014-.17.06-.24.097-.58.31-.7 1.322-.9 2.014-.54 1.89-2.04 3.64-3.91 4.11-.45.02-.89.02-1.34.03v-.34c0-.23-.17-.39-.39-.39H108v9.43h4.303c.216 0 .39-.23.39-.39v-7.44c.262 0 .524-.01.784-.02v7.08c.218.01.442-.01.66 0 1.17.24 2.03 1.27 3.227 1.42 1.338.24 2.686.07 4.035.15.98-.08 2.19.08 2.88-.78.3-.7.03-1.65.93-1.96.8-.55-.18-1.57.22-2.28.51-.55.84-1.41.24-2.04-.75-.71.26-1.8-.59-2.5-.14-.13-.29-.2-.44-.27-.16-.07-.32-.12-.49-.15-.02 0-.04-.02-.05-.02-.18-.03-.36-.05-.52-.05-.75-.05-1.5-.04-2.25-.02-.31-.01-.63-.02-.93-.05-.6-.47.14-1.33.12-1.96.11-.86.18-1.79-.05-2.58-.13-.38-.38-.8-.76-.96-.04-.02-.07-.03-.1-.05-.04-.01-.07-.04-.1-.05-.05 0-.07.02-.1.03l.03-.06zm24.46 13.715h5.23c1.03 0 1.867-.836 1.867-1.868v-10.01c0-1.028-.836-1.867-1.867-1.867h-12.266c-1.03 0-1.867.836-1.867 1.868v10.01c0 1.028.836 1.867 1.867 1.867h2.004l2.33 3.055 2.71-3.055zm-5.703-9.937c0-.336.345-.608.763-.608h8.85c.42 0 .763.27.763.608 0 .337-.345.61-.763.61h-8.85c-.42 0-.763-.27-.763-.61zm0 3.312c0-.336.346-.61.768-.61h5.64c.424 0 .768.272.768.61 0 .336-.346.608-.768.608h-5.64c-.424 0-.768-.27-.768-.608z"/><path fill="#C5C5C5" fill-rule="nonzero" d="M221.088 126.537c0 1.57-1.27 2.84-2.842 2.84h-5.772v5.78c0 1.572-1.278 2.843-2.842 2.843-1.572 0-2.843-1.27-2.843-2.842v-5.78h-5.78c-1.57 0-2.85-1.27-2.85-2.84 0-1.566 1.27-2.844 2.84-2.844h5.78v-5.772c0-1.57 1.27-2.843 2.84-2.843 1.56 0 2.84 1.27 2.84 2.84v5.77h5.77c1.57-.01 2.84 1.28 2.84 2.84h.01zm-31.842 2.845h-18.554c-1.57 0-2.843-1.27-2.843-2.843V91.87l-10.02-10.02c-.82-.812-1.06-2.033-.62-3.096.44-1.06 1.47-1.756 2.62-1.756h49.78c1.57 0 2.84 1.27 2.84 2.842v26.316c0 1.57-1.27 2.842-2.85 2.842s-2.84-1.27-2.84-2.842v-23.47H166.7l5.95 5.947c.543.52.883 1.248.883 2.057v33.005h15.71c1.573 0 2.844 1.27 2.844 2.842 0 1.568-1.274 2.842-2.846 2.842h.01zm8.19-33.05H180.91c-1.57 0-2.84-1.27-2.84-2.842 0-1.57 1.27-2.842 2.84-2.842h16.526c1.57 0 2.843 1.27 2.843 2.842s-1.28 2.843-2.85 2.843zm0 19.402H180.91c-1.57 0-2.84-1.272-2.84-2.843 0-1.57 1.27-2.84 2.84-2.84h16.526c1.57 0 2.843 1.27 2.843 2.84 0 1.58-1.28 2.85-2.85 2.85zm0-9.7H180.91c-1.57 0-2.84-1.272-2.84-2.843 0-1.57 1.27-2.84 2.84-2.84h16.526c1.57 0 2.843 1.27 2.843 2.84 0 1.58-1.28 2.85-2.85 2.85z"/><path fill="#506066" fill-rule="nonzero" d="M248.52 129.2c-.537 0-1.03.18-1.43.478l-7.397-4.568c.07-.224.107-.463.107-.71 0-.277-.05-.543-.136-.79l7.122-4.755c.437.458 1.053.745 1.735.745 1.33 0 2.4-1.077 2.4-2.4s-1.07-2.4-2.4-2.4c-1.32 0-2.4 1.077-2.4 2.4 0 .208.03.41.08.603l-7.2 4.81c-.42-.38-.98-.613-1.59-.613-1.32 0-2.4 1.077-2.4 2.4s1.08 2.4 2.4 2.4c.65 0 1.23-.256 1.66-.67l7.27 4.49c-.13.3-.21.63-.21.98 0 1.323 1.08 2.4 2.4 2.4 1.33 0 2.4-1.077 2.4-2.4s-1.07-2.4-2.4-2.4h-.01zm33.29-9.678h1.763c.32 0 .584-.263.584-.587 0-.327-.26-.587-.584-.587h-1.764v-1.764c0-.32-.27-.584-.59-.584-.33 0-.59.262-.59.584v1.764h-1.77c-.32 0-.59.263-.59.587 0 .326.26.587.58.587h1.76v1.763c0 .32.26.584.59.584.32 0 .58-.27.58-.59v-1.77l.03.01zm-12.276 7.237h7.052c2.5 0 4.533 1.93 4.533 4.3 0 .79-.68 1.43-1.52 1.43h-13.09c-.84 0-1.51-.65-1.51-1.44 0-2.38 2.03-4.31 4.53-4.31v.02zm3.625-.82c-2.34 0-4.22-1.89-4.22-4.22s1.88-4.22 4.22-4.22c2.33 0 4.22 1.89 4.22 4.22s-1.89 4.22-4.22 4.22z"/><path fill="#2F9BDB" fill-rule="nonzero" d="M309.044 120.87c.026.05.06.097.103.14.23.23.6.23.83.002l3.323-3.324c.226-.227.227-.6-.002-.828-.23-.23-.6-.23-.83-.002l-2.917 2.92-1.06-1.065c-.22-.226-.6-.227-.83.002-.23.23-.23.6 0 .828l1.21 1.203c.06.054.12.096.19.124h-.01zm-9.51 5.89h7.052c2.5 0 4.533 1.93 4.533 4.304 0 .792-.68 1.436-1.52 1.436h-13.09c-.84 0-1.51-.644-1.51-1.436 0-2.373 2.03-4.305 4.53-4.305zm3.625-.82c-2.34 0-4.22-1.89-4.22-4.22s1.88-4.22 4.22-4.22c2.33 0 4.22 1.89 4.22 4.22s-1.89 4.22-4.22 4.22z"/><path stroke="#FFF" stroke-width="1.5" d="M325.696 118.274v13.507m.158-13.58l3.933 4.18m-4.11-4.03l-3.933 4.18m12.952 9.46v-13.51m.158 13.59l3.933-4.18m-4.11 4.03l-3.933-4.17" stroke-linecap="round"/><g fill="#2F9BDB" fill-rule="nonzero"><path stroke="#2F9BDB" stroke-width=".2" d="M15.563 97.153c-1.532 0-2.963.668-3.945 1.814-.984-1.146-2.418-1.814-3.946-1.814-2.87 0-5.203 2.34-5.203 5.215 0 1.366.52 2.657 1.47 3.636l6.51 7.106c.3.336.72.52 1.16.52.44 0 .85-.186 1.16-.52l6.51-7.103c.95-.98 1.47-2.272 1.47-3.64 0-2.876-2.34-5.214-5.21-5.214h.02zm3.024 8.174l-.012.01-6.514 7.11c-.11.13-.27.202-.44.202-.16 0-.32-.08-.44-.21l-6.51-7.1-.01-.02c-.77-.8-1.2-1.85-1.2-2.96 0-2.34 1.9-4.24 4.23-4.24 1.41 0 2.72.69 3.51 1.86l.03.05c.09.14.24.22.41.22.18 0 .33-.08.42-.22.79-1.2 2.11-1.92 3.54-1.92 2.33 0 4.23 1.9 4.23 4.23.01 1.11-.42 2.16-1.2 2.96l-.04.02z"/><path d="M4.763 102.845c0 .288.235.524.523.524.286 0 .52-.24.52-.53 0-1.33 1.078-2.41 2.404-2.41.288 0 .523-.24.523-.53 0-.29-.235-.53-.523-.53-1.9 0-3.447 1.55-3.447 3.45v.02z"/></g><path fill="#2F9BDB" fill-rule="nonzero" d="M42.563 97.153c2.87 0 5.204 2.338 5.204 5.215 0 1.367-.524 2.66-1.476 3.64l-6.51 7.102c-.3.334-.72.52-1.16.52-.44 0-.85-.184-1.16-.52l-6.51-7.106c-.95-.98-1.47-2.27-1.47-3.636 0-2.875 2.34-5.215 5.2-5.215 1.53 0 2.96.668 3.95 1.814.99-1.146 2.42-1.814 3.95-1.814h-.01zm-10.8 5.692c0 .288.235.524.523.524.286 0 .52-.24.52-.53 0-1.33 1.078-2.41 2.404-2.41.288 0 .523-.24.523-.53 0-.29-.235-.53-.523-.53-1.9 0-3.447 1.55-3.447 3.45v.02z"/><path fill="#FFF" fill-rule="nonzero" d="M236.143 47.286c-1.736 0-3.143-1.407-3.143-3.143 0-1.736 1.407-3.143 3.143-3.143 1.736 0 3.143 1.407 3.143 3.143 0 1.736-1.407 3.143-3.143 3.143zm4.714-3.143c0-1.736 1.406-3.143 3.14-3.143h6.292c1.73 0 3.14 1.41 3.14 3.143 0 1.736-1.41 3.143-3.14 3.143h-6.3c-1.74 0-3.14-1.41-3.14-3.143zm3.143 11c-1.736 0-3.143-1.407-3.143-3.143 0-1.736 1.407-3.143 3.143-3.143 1.736 0 3.143 1.407 3.143 3.143 0 1.736-1.407 3.143-3.143 3.143zM244 63c-1.736 0-3.143-1.407-3.143-3.143 0-1.736 1.407-3.143 3.143-3.143 1.736 0 3.143 1.407 3.143 3.143 0 1.736-1.407 3.143-3.143 3.143z"/><path fill="#506066" fill-rule="nonzero" d="M369.655 61.715v9.135c0 .607-.407 1.015-1.015 1.015-.607 0-1.015-.408-1.015-1.015v-9.135c0-1.624-.707-3.147-1.93-4.162-8.12-6.697-17.053-11.165-18.676-11.978-.51-.307-.92-.815-.92-1.422V31.265c0-.308.2-.61.4-.815 1.42-.915 2.23-2.437 2.23-4.16V12.995c0-6.09-4.88-10.965-10.97-10.965h-2.85c-6.09 0-10.97 4.875-10.97 10.965V26.29c0 1.623.81 3.245 2.23 4.16.3.2.41.508.41.815v12.787c0 .608-.31 1.216-.92 1.423-1.72.813-10.56 5.275-18.68 11.978-1.22 1.015-1.93 2.538-1.93 4.16v9.135c0 .61-.41 1.015-1.02 1.015-.61 0-1.02-.406-1.02-1.015v-9.135c0-2.23 1.01-4.366 2.74-5.783 8.02-6.597 16.64-11.064 18.87-12.18V31.772C322.91 30.45 322 28.42 322 26.29V12.995C321.85 5.783 327.74 0 334.844 0h2.843c7.204 0 12.994 5.783 12.994 12.995V26.29c0 2.13-1.01 4.16-2.64 5.482v12.08c2.24 1.115 10.86 5.58 18.88 12.18 1.72 1.316 2.74 3.446 2.74 5.683zM273.03 70.85v-7.412c0-1.323.608-2.438 1.523-3.246 6.597-5.482 13.802-9.135 15.224-9.744.508-.2.814-.813.814-1.32V38.57c0-.307-.2-.608-.4-.815-1.11-.708-1.72-1.928-1.72-3.245V23.752c0-4.77 3.96-8.727 8.73-8.727h2.34c4.77 0 8.73 3.958 8.73 8.727V34.51c0 1.322-.6 2.538-1.72 3.245-.31.207-.41.508-.41.815v8.527c0 .608.41 1.015 1.02 1.015.61 0 1.02-.407 1.02-1.015v-8.02c1.43-1.115 2.13-2.737 2.13-4.567V23.752c0-5.89-4.87-10.757-10.75-10.757h-2.34c-5.88 0-10.75 4.873-10.75 10.757V34.51c0 1.83.82 3.452 2.13 4.568v9.642c-1.92 1.015-8.93 4.568-15.32 9.843-1.43 1.216-2.23 2.945-2.23 4.874v7.413c0 .607.4 1.015 1.01 1.015s1.02-.508 1.02-1.015h-.05zm68.713-23.145c0 1.422-.508 2.638-1.423 3.553l1.323 31.157c0 .307-.1.61-.308.815l-4.26 3.86c-.2.2-.407.306-.708.306-.2 0-.507-.1-.71-.306l-4.164-3.96c-.2-.202-.308-.508-.308-.815l1.323-30.65c-1.015-1.015-1.623-2.337-1.623-3.86 0-.608.407-1.015 1.015-1.015.608 0 1.015.407 1.015 1.015 0 1.115.507 2.13 1.422 2.74.608.405 1.216.607 2.03.607 1.83 0 3.35-1.523 3.35-3.352 0-.608.41-1.015 1.016-1.015.608 0 1.01.413 1.01.92zm-2.13 34.31l-1.216-29.235c-.61.307-1.322.407-2.03.407-.61 0-1.216-.1-1.83-.307l-1.322 29.13 3.247 2.943 3.15-2.938z" opacity=".5"/><path fill="#506066" fill-rule="nonzero" d="M435.74 78.765c2.283-1.318 14.23.49 16.093-1.22 1.862-1.713-6.462-6.832-5.072-8.786 7.7-10.82 8.87-25.56 1.8-37.8-9.66-16.74-31.06-22.47-47.8-12.81-16.74 9.66-22.47 31.06-12.81 47.8 9.66 16.73 31.07 22.47 47.81 12.8l-.02.01z" opacity=".45"/><path fill="#FFF" fill-rule="nonzero" d="M406.538 40.857c-3.058 0-5.538-2.43-5.538-5.428 0-3 2.48-5.43 5.538-5.43 3.06 0 5.54 2.43 5.54 5.43 0 2.99-2.48 5.42-5.54 5.42zm8.308-5.428c0-3 2.434-5.43 5.42-5.43h11.315c3 0 5.42 2.43 5.42 5.43 0 2.99-2.43 5.42-5.42 5.42h-11.31c-2.99 0-5.42-2.44-5.42-5.43v.01zm5.54 19c-3.06 0-5.54-2.44-5.54-5.43 0-3 2.48-5.43 5.54-5.43 3.057 0 5.537 2.43 5.537 5.43 0 2.99-2.48 5.43-5.538 5.43zm0 13.57c-3.06 0-5.54-2.43-5.54-5.43 0-3 2.48-5.43 5.54-5.43 3.057 0 5.537 2.43 5.537 5.43 0 3-2.48 5.43-5.538 5.43z"/><path stroke="#506066" stroke-width="1.3" d="M121.312 41.375h-5.314c-1.103 0-1.998.893-1.998 2.003v10.62c0 1.105.893 2.002 2.003 2.002h10.618c1.11 0 2.01-.897 2.01-1.998v-5.314m-9 1.832L131 39.004m.02-.354h-5.97m6.13.03v5.968" stroke-linecap="round"/><path fill="#FFF" fill-rule="nonzero" d="M2 49.046C2.002 43.496 6.504 38.998 12.055 39h6.393C24 39 28.5 43.5 28.5 49.053c0 5.552-4.5 10.054-10.052 10.054h-1.67c-1.28 2.41-3.633 3.96-5.303 4.805-.63.317-1.336-.273-1.135-.95.378-1.286.467-2.64.256-3.965-4.938-.724-8.598-4.96-8.596-9.95zm7.565 2.035h.017c2.432 0 2.432-3.64 0-3.64h-.017c-1.007 0-1.824.81-1.824 1.82s.82 1.83 1.83 1.83v-.01zm5.684 0h.01c2.43 0 2.43-3.64 0-3.64h-.02c-1.01 0-1.83.81-1.83 1.82s.81 1.83 1.82 1.83l.02-.01zm5.68 0h.01c2.43 0 2.43-3.64 0-3.64h-.02c-1.01 0-1.83.81-1.83 1.82s.81 1.83 1.82 1.83l.02-.01z"/><path fill="#2F9BDB" fill-rule="nonzero" d="M94.215 49.256c.6 0 1.084.49 1.084 1.098v3.372C95.3 55.53 93.84 57 92.06 57h-9.83C80.453 57 79 55.53 79 53.726v-9.96c0-1.803 1.452-3.273 3.232-3.293h3.194c.6 0 1.084.49 1.084 1.098 0 .61-.484 1.1-1.084 1.1h-3.194c-.6 0-1.084.49-1.084 1.1v9.96c0 .61.484 1.1 1.084 1.1h9.815c.6 0 1.084-.49 1.084-1.1v-3.37c0-.61.49-1.1 1.09-1.1zm1.402-6.376c-.134.14-.355.14-.492 0l-1.953-1.978c-.137-.138-.137-.362 0-.5l1.154-1.17c.306-.31.8-.31 1.107 0l1.34 1.357c.303.31.303.81 0 1.12l-1.156 1.17zm-.91.828l-6.39 6.475c-.134.23-.354.23-.49.093l-1.954-1.978c-.136-.14-.136-.362 0-.5l6.39-6.473c.135-.138.354-.138.49 0l1.954 1.98c.136.137.136.36 0 .403zm-7.277 7.537l-2.944 1.022-.055.02c-.08.02-.18-.005-.25-.076-.07-.07-.09-.17-.07-.26l.02-.05 1.01-2.98.02-.05c.01-.03.03-.05.06-.08.11-.11.29-.11.39 0l1.98 2c.11.11.11.29 0 .4-.02.03-.05.05-.08.06l-.05.02-.03-.02z"/><path fill="#FFF" fill-rule="nonzero" d="M60.143 41.112H45.03c-.58 0-1.055-.476-1.055-1.056 0-.58.476-1.056 1.056-1.056h15.14c.58.028 1.03.476 1.03 1.056 0 .58-.47 1.056-1.05 1.056zm0 7.084H45.067c-.58 0-1.056-.476-1.056-1.056 0-.58.48-1.056 1.06-1.056h15.1c.58 0 1.03.476 1.03 1.056 0 .58-.47 1.056-1.05 1.056zm0 7.084h-15.04c-.58 0-1.056-.476-1.056-1.056 0-.58.475-1.056 1.056-1.056H60.17c.58 0 1.028.476 1.028 1.056 0 .58-.475 1.056-1.055 1.056z"/><path fill="#FFF" d="M13.922 127.966c-.104.106-.275.106-.38 0l-1.513-1.512c-.11-.106-.11-.277 0-.382l.89-.894c.23-.237.62-.237.85 0l1.03 1.037c.23.237.23.62 0 .858l-.9.893zm-.704.633l-4.946 4.94c-.104.17-.275.17-.38.07L6.38 132.1c-.11-.105-.11-.276 0-.38l4.94-4.948c.106-.105.275-.105.38 0l1.513 1.513c.105.105.105.276 0 .31zm-5.786 5.64l-2.145.73-.04.01c-.065.01-.136-.01-.188-.06-.06-.05-.07-.12-.06-.19l.01-.04.73-2.15.01-.04c.01-.02.02-.04.04-.06.08-.08.21-.08.28 0l1.44 1.43c.08.08.08.2 0 .28-.02.02-.04.03-.06.04l-.04.02z"/><path fill="#CFCFCF" d="M68.922 127.966c-.104.106-.275.106-.38 0l-1.513-1.512c-.11-.106-.11-.277 0-.382l.89-.894c.23-.237.62-.237.85 0l1.03 1.037c.23.237.23.62 0 .858l-.9.893zm-.704.633l-4.946 4.94c-.104.17-.275.17-.38.07l-1.512-1.51c-.11-.11-.11-.28 0-.38l4.94-4.95c.106-.11.275-.11.38 0l1.513 1.51c.105.1.105.27 0 .31zm-5.786 5.64l-2.145.73-.04.01c-.065.01-.136-.01-.188-.06-.06-.05-.07-.12-.06-.19l.01-.04.73-2.15.01-.04c.01-.02.02-.04.04-.06.08-.08.21-.08.28 0l1.44 1.43c.08.08.08.2 0 .28-.02.02-.04.03-.06.04l-.04.02z"/><path fill="#2F9BDB" d="M93.922 127.966c-.104.106-.275.106-.38 0l-1.513-1.512c-.11-.106-.11-.277 0-.382l.89-.894c.23-.237.62-.237.85 0l1.03 1.037c.23.237.23.62 0 .858l-.9.893zm-.704.633l-4.946 4.94c-.104.17-.275.17-.38.07l-1.512-1.51c-.11-.11-.11-.28 0-.38l4.94-4.95c.106-.11.275-.11.38 0l1.513 1.51c.105.1.105.27 0 .31zm-5.786 5.64l-2.145.73-.04.01c-.065.01-.136-.01-.188-.06-.06-.05-.07-.12-.06-.19l.01-.04.73-2.15.01-.04c.01-.02.02-.04.04-.06.08-.08.21-.08.28 0l1.44 1.43c.08.08.08.2 0 .28-.02.02-.04.03-.06.04l-.04.02z"/><g transform="translate(29 123)"><circle cx="8.75" cy="8.75" r="5.75" fill="#FFF"/><path fill="#2F9BDB" d="M13.5 11.67c0-.205-.075-.383-.224-.532L11.138 9l2.138-2.138c.15-.15.224-.327.224-.53 0-.214-.075-.395-.224-.545l-1.063-1.063c-.15-.15-.33-.224-.544-.224-.21 0-.39.075-.54.224L9 6.862 6.862 4.724c-.15-.15-.327-.224-.53-.224-.214 0-.395.075-.545.224L4.724 5.787c-.15.15-.224.33-.224.544 0 .21.075.39.224.54L6.862 9l-2.138 2.138c-.15.15-.224.327-.224.53 0 .214.075.395.224.545l1.063 1.063c.15.15.33.224.544.224.21 0 .39-.075.54-.224L9 11.138l2.138 2.138c.15.15.327.224.53.224.214 0 .395-.075.545-.224l1.063-1.063c.15-.15.224-.33.224-.544zM18 9c0 1.633-.402 3.14-1.207 4.518-.805 1.378-1.897 2.47-3.275 3.275C12.138 17.598 10.633 18 9 18s-3.14-.402-4.518-1.207c-1.378-.805-2.47-1.897-3.275-3.275C.402 12.138 0 10.633 0 9s.402-3.14 1.207-4.518c.805-1.378 1.897-2.47 3.275-3.275C5.862.402 7.367 0 9 0s3.14.402 4.518 1.207c1.378.805 2.47 1.897 3.275 3.275C17.598 5.862 18 7.367 18 9z"/></g><g transform="translate(5 151)"><circle cx="7.5" cy="7.5" r="7.5" fill="#2F9BDB"/><path fill="#FFF" d="M5.08 6.865c.12 2.475.116 3.653-.01 3.533-.04.21-.22.36-.44.36h-.88c-.248 0-.448-.2-.448-.45V6.816c0-.25.2-.45.45-.45h.88c.248 0 .448.2.448.45v.05zm4.693-.96c.53-.02 1.317-.04 1.577.5.14.23.29.73-.01 1.108.06.11.13.28.13.48-.01.24-.11.48-.3.698.11.26.16.68-.15 1.03.02.17.03.48-.13.73-.11.16-.28.27-.488.3H6.758c-.04 0-.07 0-.1-.02s-.27-.15-.46-.33c-.04.21.01-3.83.01-3.58v.05h.28c.09-.09.27-.29.41-.51.08-.12.15-.28.21-.43.1-.24.2-.48.358-.64.03-.02.06-.05.1-.09.28-.27.87-.83.96-1.46 0-.08.038-.48.288-.67.11-.09.25-.12.4-.09.22.05.43.21.578.46.19.31.25.68.17.97-.11.38-.41.91-.59 1.23-.04.06-.07.11-.088.15-.02.04-.03.07-.03.08.03.01.09.03.22.04.08.01.18 0 .3 0z"/></g><g transform="translate(31 151)"><circle cx="7.5" cy="7.5" r="7.5" fill="#2F9BDB"/><path fill="#FFF" d="M10 9.654c.552 0 1-.448 1-1V5.52c0-.552-.448-1-1-1H5c-.552 0-1 .448-1 1v3.134c0 .552.448 1 1 1h1.052v2.64l2.636-2.64H10z"/></g><path fill="#506066" stroke="#506066" stroke-width=".2" d="M69.63 157.456c-.223 0-.41.018-.557 0-.24-.02-.352-.056-.408-.074 0-.02.02-.074.056-.15.04-.073.1-.166.17-.277.34-.593.89-1.577 1.1-2.282.15-.537.04-1.224-.31-1.8-.28-.462-.67-.76-1.07-.852-.28-.05-.53 0-.74.17-.46.35-.53 1.1-.53 1.24-.16 1.17-1.26 2.21-1.78 2.71-.07.08-.13.13-.18.17-.3.3-.48.74-.67 1.19-.11.28-.24.58-.39.8-.26.41-.59.78-.76.95h-.52v-.09c0-.46-.37-.83-.83-.83h-3.34c-.46 0-.83.37-.83.84v6.49c0 .47.37.84.84.84h3.33c.407 0 .74-.28.815-.67.35.34.8.58.854.61.055.04.11.04.185.04h6.77c.39-.05.7-.25.904-.55.3-.46.28-1.04.24-1.35.577-.65.48-1.42.28-1.91.35-.41.537-.85.556-1.3 0-.37-.13-.69-.24-.89.557-.7.28-1.63.02-2.06-.48-1-1.944-.96-2.93-.93zm-7.364 8.18c0 .055-.037.092-.093.092h-3.338c-.056 0-.093-.037-.093-.093v-6.49c0-.057.037-.094.093-.094h3.338c.056 0 .093.04.093.1v6.49zm9.256-3.34c-.13.13-.15.316-.056.465.02.04.482.8-.167 1.4-.1.09-.15.22-.12.35.03.17.09.69-.1.99-.08.13-.21.21-.37.22h-6.6c-.21-.13-.58-.37-.76-.61-.06-.05-.12-.11-.19-.13-.04-.02-.1-.02-.17-.04v-4.95h.68c.09 0 .18-.03.26-.09.02-.02.57-.55.98-1.18.18-.28.31-.61.44-.91.17-.39.32-.74.5-.94.04-.04.11-.09.17-.16.59-.55 1.81-1.72 2-3.15.02-.24.11-.61.26-.72.01-.02.05-.035.14-.02.206.04.43.22.595.5.24.39.33.87.24 1.21-.188.63-.74 1.596-1.04 2.134-.074.115-.13.225-.167.3-.19.334-.21.63-.08.87.2.37.683.428 1.04.447h.61c.78-.02 1.983-.06 2.243.52 0 .014.02.014.02.03.02.04.52.855-.11 1.41-.074.076-.13.17-.13.26-.02.057.02.17.093.22.65.67-.11 1.467-.26 1.616z"/><path fill="#2F9BDB" stroke="#2F9BDB" stroke-width=".2" d="M118.63 157.456c-.223 0-.41.018-.557 0-.24-.02-.352-.056-.408-.074 0-.02.02-.074.056-.15.04-.073.1-.166.17-.277.34-.593.89-1.577 1.1-2.282.15-.537.04-1.224-.31-1.8-.28-.462-.67-.76-1.07-.852-.28-.05-.53 0-.74.17-.46.35-.53 1.1-.53 1.24-.16 1.17-1.26 2.21-1.78 2.71-.07.08-.13.13-.18.17-.3.3-.48.74-.67 1.19-.11.28-.24.58-.39.8-.26.41-.59.78-.76.95h-.52v-.09c0-.46-.37-.83-.83-.83h-3.33c-.46 0-.83.37-.83.84v6.49c0 .47.37.84.835.84h3.334c.41 0 .74-.28.817-.67.35.34.795.58.85.61.056.04.11.04.186.04h6.77c.39-.05.705-.25.908-.55.297-.46.28-1.04.24-1.35.575-.65.48-1.42.278-1.91.353-.41.54-.85.557-1.3 0-.37-.13-.69-.24-.89.556-.7.278-1.63.02-2.06-.48-1-1.946-.96-2.93-.93zm-7.364 8.18c0 .055-.037.092-.093.092h-3.338c-.056 0-.093-.037-.093-.093v-6.49c0-.057.037-.094.093-.094h3.338c.056 0 .093.04.093.1v6.49zm9.256-3.34c-.13.13-.15.316-.056.465.02.04.482.8-.167 1.4-.1.09-.15.22-.12.35.03.17.09.69-.1.99-.08.13-.21.21-.37.22h-6.61c-.21-.13-.58-.37-.76-.61-.06-.05-.12-.11-.19-.13-.04-.02-.09-.02-.17-.04v-4.95h.68c.09 0 .18-.03.26-.09.02-.02.57-.55.98-1.18.18-.28.31-.61.44-.91.17-.39.32-.74.5-.94.04-.04.12-.09.17-.16.59-.55 1.82-1.72 2-3.15.02-.24.116-.61.26-.72.02-.02.06-.035.15-.02.206.04.43.22.595.5.24.39.332.87.24 1.21-.186.63-.74 1.596-1.04 2.134-.073.115-.13.225-.166.3-.19.334-.206.63-.076.87.202.37.684.428 1.04.447h.61c.78-.02 1.984-.06 2.244.52 0 .014.02.014.02.03.01.04.52.855-.12 1.41-.07.076-.13.17-.13.26-.015.057.02.17.096.22.65.67-.11 1.467-.26 1.616z"/><use fill="#FFF" xlink:href="#g"/><path stroke="#506066" d="M88.166 164.928l2.94-2.428H95c1.38 0 2.5-1.12 2.5-2.5v-5c0-1.38-1.12-2.5-2.5-2.5h-9c-1.38 0-2.5 1.12-2.5 2.5v5c0 1.38 1.12 2.5 2.5 2.5h1.348v2.043c0 .276.224.5.5.5.116 0 .228-.04.318-.115z"/></g></svg>